# xmcd
#
# Track frame offsets:
#	150
#	22293
#	37645
#	51578
#	66936
#	80134
#	96563
#	110540
#	127275
#	144412
#	159139
#	173147
#
# Disc length: 2493 seconds
#
# Revision: 1
# Processed by: cddbd v1.5.2PL0 Copyright (c) Steve Scherf et al.
# Submitted via: audiograbber 1.83.01
#
DISCID=ad09bb0c
DTITLE=George Jones - Burn Your Playhouse Down: The Unreleased Duets
DYEAR=2008
DGENRE=Country
TTITLE0=You and Me and Time (with Georgette Jones)
TTITLE1=The Window Up Above (with Leon Russell)
TTITLE2=She Once Lived Here (with Ricky Skaggs)
TTITLE3=Rockin' Years (with Dolly Parton)
TTITLE4=Burn Your Playhouse Down (with Keith Richards)
TTITLE5=Selfishness in Man (with Vince Gill)
TTITLE6=Tavern Choir (with Jim Lauderdale)
TTITLE7=I Always Get It Right with You (with Shelby Lynne)
TTITLE8=When the Grass Grows Over Me (with Mark Chesnutt)
TTITLE9=I Always Get Lucky with You (with Mark Knopfler)
TTITLE10=You're Still on My Mind (with Marty Stuart)
TTITLE11=Lovin' You, Lovin' Me (with Tammy Wynette)
EXTD=
EXTT0=
EXTT1=
EXTT2=
EXTT3=
EXTT4=
EXTT5=
EXTT6=
EXTT7=
EXTT8=
EXTT9=
EXTT10=
EXTT11=
PLAYORDER=
